<svg fill="#208326" height="161px" width="161px" version="1.1" id="Layer_1" xmlns="http://www.w3.org/2000/svg" xmlns:xlink="http://www.w3.org/1999/xlink" viewBox="0 0 512 512" enable-background="new 0 0 512 512" xml:space="preserve" stroke="#208326"><g id="SVGRepo_bgCarrier" stroke-width="0"></g><g id="SVGRepo_tracerCarrier" stroke-linecap="round" stroke-linejoin="round"></g><g id="SVGRepo_iconCarrier"> <path d="M256,243.2c141.4,0,256-47.8,256-106.7c0-58.9-114.6-106.7-256-106.7S0,77.6,0,136.5C0,195.4,114.6,243.2,256,243.2z M256,413.8c-97.7,0-184.1-23.5-238.6-59.8C6.3,366,0,378.9,0,392.5c0,58.9,114.6,106.7,256,106.7s256-47.8,256-106.7 c0-13.6-6.3-26.5-17.4-38.4C440.1,390.3,353.7,413.8,256,413.8z M256,285.8c-97.7,0-184.1-23.5-238.6-59.8C6.3,238,0,250.9,0,264.5 c0,58.9,114.6,106.7,256,106.7s256-47.8,256-106.7c0-13.6-6.3-26.5-17.4-38.4C440.1,262.3,353.7,285.8,256,285.8z"></path> </g></svg>
